<svg width="112" height="112" viewBox="0 0 112 112" fill="none" xmlns="http://www.w3.org/2000/svg">
<path d="M85.0704 41.7255L85.2143 41.9333L96.7779 58.7789C96.8672 58.9112 96.7779 59.1095 96.6539 59.1143L86.2709 59.2607C86.2393 59.2598 86.2086 59.2505 86.1823 59.2338C86.1559 59.217 86.1351 59.1936 86.1221 59.1662C85.5069 57.9383 78.7354 45.4706 77.5548 43.284C77.4804 43.147 77.5548 42.9676 77.6937 42.9676C78.7751 42.9865 82.2477 42.9345 85.0704 41.7255Z" fill="#245A9A"/>
<path d="M75.771 21.5816C75.771 21.5816 92.5063 20.6471 93.2707 31.0763C94.1842 43.5007 77.1315 43.954 76.6748 43.2904C76.7373 41.856 75.771 21.5816 75.771 21.5816Z" fill="#245A9A"/>
<path d="M76.6475 27.8895C76.6475 27.8895 85.063 26.2135 85.4049 32.7617C85.7468 39.3098 77.3148 39.3195 77.1129 38.9834C77.1129 38.2428 76.6475 27.8895 76.6475 27.8895Z" fill="#E3D7F1"/>
<path d="M72.2635 22.4368L71.3867 7.53189" stroke="#245A9A" stroke-width="1.03448" stroke-miterlimit="10"/>
<path d="M42.4544 105.468L41.5776 90.5632" stroke="#245A9A" stroke-width="1.03448" stroke-miterlimit="10"/>
<path d="M35.4976 54.5677L37.2397 91.4401L45.0833 91.03L44.3793 75.2894L44.3657 74.9715L43.3729 52.8628L35.439 53.2821L35.4976 54.5677Z" fill="#245A9A" stroke="#245A9A" stroke-width="0.517241" stroke-miterlimit="10"/>
<path d="M56.0689 29.4508L54.729 29.5002L55.0814 38.2146L56.4213 38.1652L56.0689 29.4508Z" fill="#245A9A" stroke="#245A9A" stroke-width="0.12931" stroke-miterlimit="10"/>
<path d="M39.8551 44.4709L38.5151 44.5203L38.8476 52.7424L40.1875 52.693L39.8551 44.4709Z" fill="#245A9A" stroke="#245A9A" stroke-width="0.12931" stroke-miterlimit="10"/>
<path d="M58.6962 75.0421L57.3584 75.1317L57.9373 83.3401L59.2752 83.2506L58.6962 75.0421Z" fill="#245A9A" stroke="#245A9A" stroke-width="0.12931" stroke-miterlimit="10"/>
<path d="M74.5645 59.6502L73.2246 59.6995L73.5571 67.9216L74.897 67.8723L74.5645 59.6502Z" fill="#245A9A" stroke="#245A9A" stroke-width="0.12931" stroke-miterlimit="10"/>
<path d="M52.1478 39.0466L53.887 75.9189L61.7425 75.5088L61.0333 59.7637L61.0197 59.4503L60.0259 37.3416L52.0981 37.7517L52.1478 39.0466Z" fill="#245A9A"/>
<path d="M68.798 23.2653L70.5544 60.1373L78.4016 59.7286L77.6883 43.9867L77.6747 43.6719L76.713 21.56L68.7573 21.9734L68.798 23.2653Z" fill="#245A9A"/>
<path d="M56 109.148C85.2711 109.148 109 85.4192 109 56.1481C109 26.877 85.2711 3.14813 56 3.14813C26.7289 3.14813 3 26.877 3 56.1481C3 85.4192 26.7289 109.148 56 109.148Z" stroke="#2A5099" stroke-width="5.17241" stroke-miterlimit="10"/>
</svg>
